Coordinates
version=1
nRows=43
nColumns=12
inDegrees=yes

Units are S.I. units (second, meters, Newtons, ...)
Angles are in degrees

endheader
time	SC_y	SC_z	SC_x	AC_y	AC_z	AC_x	GH_y	GH_z	GH_yy	EL_x	PS_y
       0.0              -20.81          3.021          44.02          67.65         -2.696          19.94         -145.8         -11.22          166.3          107.3          134.3
    0.0251              -20.82          3.023          44.01          67.64         -2.698          19.94         -145.8         -11.21          166.3          107.3          134.3
    0.0502              -20.82          3.025          44.01          67.64           -2.7          19.94         -145.8         -11.21          166.3          107.3          134.3
    0.0753              -20.83          3.028           44.0          67.64         -2.702          19.94         -145.8         -11.21          166.3          107.3          134.3
    0.1004              -20.84          3.031           44.0          67.64         -2.704          19.94         -145.8         -11.21          166.3          107.3          134.3
    0.1255              -20.84          3.034          43.99          67.63         -2.706          19.94         -145.8         -11.21          166.3          107.3          134.3
    0.1506              -20.85          3.037          43.99          67.63         -2.709          19.93         -145.8          -11.2          166.3          107.3          134.3
    0.1757              -20.86           3.04          43.98          67.63         -2.712          19.93         -145.8          -11.2          166.3          107.3          134.3
    0.2008              -20.87          3.044          43.97          67.62         -2.715          19.93         -145.8          -11.2          166.3          107.3          134.3
    0.2259              -20.88          3.048          43.97          67.62         -2.718          19.93         -145.7         -11.19          166.3          107.3          134.3
     0.251              -20.89          3.052          43.96          67.61         -2.721          19.93         -145.7         -11.19          166.3          107.3          134.3
    0.2761               -20.9          3.057          43.95          67.61         -2.725          19.92         -145.7         -11.19          166.3          107.3          134.3
    0.3012              -20.91          3.062          43.94           67.6         -2.728          19.92         -145.7         -11.18          166.3          107.3          134.3
    0.3263              -20.93          3.067          43.93           67.6         -2.733          19.92         -145.7         -11.18          166.2          107.3          134.4
    0.3514              -20.94          3.073          43.92          67.59         -2.737          19.91         -145.7         -11.17          166.2          107.3          134.4
    0.3765              -20.95          3.079          43.91          67.59         -2.742          19.91         -145.6         -11.17          166.2          107.2          134.4
    0.4016              -20.97          3.085           43.9          67.58         -2.747          19.91         -145.6         -11.16          166.2          107.2          134.4
    0.4267              -20.99          3.093          43.88          67.57         -2.753           19.9         -145.6         -11.16          166.2          107.2          134.4
    0.4518              -21.01          3.101          43.87          67.56         -2.759           19.9         -145.6         -11.15          166.2          107.2          134.4
    0.4769              -21.03           3.11          43.85          67.56         -2.766          19.89         -145.5         -11.14          166.2          107.2          134.4
     0.502              -21.05          3.119          43.83          67.55         -2.774          19.89         -145.5         -11.13          166.2          107.2          134.4
    0.5271              -21.08           3.13          43.81          67.54         -2.782          19.88         -145.5         -11.12          166.1          107.2          134.4
    0.5522              -21.11          3.141          43.79          67.52         -2.792          19.88         -145.4         -11.11          166.1          107.1          134.4
    0.5773              -21.14          3.154          43.77          67.51         -2.802          19.87         -145.4          -11.1          166.1          107.1          134.4
    0.6024              -21.17          3.169          43.74           67.5         -2.813          19.86         -145.3         -11.09          166.1          107.1          134.4
    0.6275              -21.21          3.185          43.71          67.48         -2.826          19.85         -145.3         -11.08          166.1          107.1          134.5
    0.6526              -21.26          3.203          43.67          67.46          -2.84          19.84         -145.2         -11.06          166.0          107.0          134.5
    0.6777              -21.31          3.223          43.64          67.44         -2.856          19.83         -145.1         -11.05          166.0          107.0          134.5
    0.7028              -21.36          3.246          43.59          67.42         -2.875          19.82         -145.1         -11.03          166.0          107.0          134.5
    0.7279              -21.43          3.272          43.54          67.39         -2.895           19.8         -145.0          -11.0          165.9          106.9          134.5
     0.753               -21.5          3.301          43.49          67.36         -2.919          19.79         -144.9         -10.98          165.9          106.9          134.6
    0.7781              -21.58          3.335          43.42          67.33         -2.946          19.77         -144.8         -10.95          165.8          106.8          134.6
    0.8032              -21.68          3.375          43.35          67.29         -2.977          19.75         -144.6         -10.92          165.8          106.7          134.6
    0.8283              -21.79           3.42          43.26          67.24         -3.013          19.72         -144.5         -10.88          165.7          106.7          134.7
    0.8534              -21.92          3.474          43.16          67.19         -3.055          19.69         -144.3         -10.83          165.6          106.6          134.7
    0.8785              -22.07          3.537          43.04          67.12         -3.105          19.66         -144.1         -10.78          165.5          106.5          134.8
    0.9036              -22.25          3.611           42.9          67.05         -3.164          19.62         -143.8         -10.72          165.4          106.3          134.8
    0.9287              -22.47          3.701          42.73          66.96         -3.236          19.57         -143.5         -10.64          165.2          106.2          134.9
    0.9538              -22.74          3.809          42.53          66.85         -3.322          19.51         -143.2         -10.55          165.1          106.0          135.0
    0.9789              -23.06          3.942          42.28          66.71         -3.427          19.44         -142.7         -10.44          164.9          105.8          135.1
     1.004              -23.46          4.105          41.97          66.55         -3.556          19.35         -142.2          -10.3          164.6          105.5          135.2
     1.029              -23.95          4.309          41.59          66.34         -3.718          19.23         -141.5         -10.13          164.3          105.2          135.4
     1.054              -24.58          4.566           41.1          66.08         -3.922          19.09         -140.6         -9.908          163.9          104.7          135.6
